# xmcd
#
# Track frame offsets:
#	150
#	24726
#	49338
#	69730
#	86441
#	103951
#	129019
#	153271
#
# Disc length: 2428 seconds
#
# Revision: 0
# Processed by: cddbd v1.5.1PL0 Copyright (c) Steve Scherf et al.
# Submitted via: audiograbber 1.81.02
#
DISCID=64097a08
DTITLE=The West Coast Wood Kings - The West Coast Wood Kings
DYEAR=2004
DGENRE=Blues
TTITLE0=Take Me To The River
TTITLE1=Black Cat Bone
TTITLE2=Rock Me
TTITLE3=Matchbox
TTITLE4=I Loved Another Woman
TTITLE5=Mustang Sally
TTITLE6=Knockin' On Heaven's Door
TTITLE7=Poke Salad Annie
EXTD=
EXTT0=
EXTT1=
EXTT2=
EXTT3=
EXTT4=
EXTT5=
EXTT6=
EXTT7=
PLAYORDER=
